<svg xmlns="http://www.w3.org/2000/svg"  viewBox="0 0 30 30" width="30px" height="30px"><path  d="M4,27.5c-0.827,0-1.5-0.673-1.5-1.5V4c0-0.827,0.673-1.5,1.5-1.5h22c0.827,0,1.5,0.673,1.5,1.5v22 c0,0.827-0.673,1.5-1.5,1.5H4z"/><path d="M26,3c0.551,0,1,0.449,1,1v22c0,0.551-0.449,1-1,1H4c-0.551,0-1-0.449-1-1V4c0-0.551,0.449-1,1-1H26 M26,2H4C2.895,2,2,2.895,2,4v22c0,1.105,0.895,2,2,2h22c1.105,0,2-0.895,2-2V4C28,2.895,27.105,2,26,2L26,2z"/><path fill="none" stroke="#fff" stroke-miterlimit="10" stroke-width="2" d="M8.5 15.038L12.808 19.346 22.5 9.654"/></svg>
